<?xml version="1.0" encoding="UTF-8" standalone="no"?>
<svg
   xmlns:dc="http://purl.org/dc/elements/1.1/"
   xmlns:cc="http://creativecommons.org/ns#"
   xmlns:rdf="http://www.w3.org/1999/02/22-rdf-syntax-ns#"
   xmlns:svg="http://www.w3.org/2000/svg"
   xmlns="http://www.w3.org/2000/svg"
   viewBox="0 0 571.12 102.81333"
   height="102.81333"
   width="571.12"
   xml:space="preserve"
   id="svg2"
   version="1.1"><metadata
     id="metadata8"><rdf:RDF><cc:Work
         rdf:about=""><dc:format>image/svg+xml</dc:format><dc:type
           rdf:resource="http://purl.org/dc/dcmitype/StillImage" /></cc:Work></rdf:RDF></metadata><defs
     id="defs6" /><g
     transform="matrix(1.3333333,0,0,-1.3333333,0,102.81333)"
     id="g10"><g
       transform="scale(0.1)"
       id="g12"><path
         id="path14"
         style="fill:#f8dc19;fill-opacity:1;fill-rule:nonzero;stroke:none"
         d="m 374.82,262.98 c -128.062,0 -231.89,103.805 -231.89,231.864 0,128.082 103.828,231.898 231.89,231.898 12.258,0 24.289,-0.965 36.035,-2.801 v 47.168 H 33.8789 C 15.1641,771.109 0,755.938 0,737.227 V 252.949 C 0,234.238 15.1641,219.07 33.8789,219.07 H 410.855 v 46.711 c -11.746,-1.836 -23.777,-2.801 -36.035,-2.801" /><path
         id="path16"
         style="fill:#f8dc19;fill-opacity:1;fill-rule:nonzero;stroke:none"
         d="M 645.824,771.109 H 469.605 v -64.632 c 80.793,-36.247 137.106,-117.336 137.106,-211.633 0,-94.278 -56.313,-175.352 -137.106,-211.602 V 219.07 h 176.219 c 18.711,0 33.883,15.168 33.883,33.879 v 484.278 c 0,18.711 -15.172,33.882 -33.883,33.882" /><path
         id="path18"
         style="fill:#1a2443;fill-opacity:1;fill-rule:nonzero;stroke:none"
         d="m 979.824,312.207 h 66.606 v 290.691 h 111.31 v 52.985 H 868.508 v -52.985 h 111.316 z m 315.006,-5.84 c 36.46,0 71.94,6.321 93.82,13.125 l -10.21,50.078 c -21.87,-4.382 -53.47,-10.703 -71.95,-10.703 -47.15,0 -83.6,9.727 -83.6,68.059 h 173.05 v 23.328 c 0,83.129 -31.11,133.687 -107.91,133.687 -74.87,0 -129.8,-35 -129.8,-143.398 0,-104.027 52.99,-134.176 136.6,-134.176 m -70.49,163.828 c 2.92,43.75 24.8,67.563 57.37,67.563 32.08,0 48.12,-27.707 47.64,-67.563 z m 229.93,-157.988 h 64.65 V 678.73 h -64.65 z m 261.04,-5.84 c 36.46,0 71.95,6.321 93.81,13.125 l -10.2,50.078 c -21.88,-4.382 -53.48,-10.703 -71.95,-10.703 -47.15,0 -83.61,9.727 -83.61,68.059 h 173.06 v 23.328 c 0,83.129 -31.12,133.687 -107.92,133.687 -74.86,0 -129.79,-35 -129.79,-143.398 0,-104.027 52.98,-134.176 136.6,-134.176 m -70.49,163.828 c 2.92,43.75 24.79,67.563 57.36,67.563 32.09,0 48.13,-27.707 47.64,-67.563 z m 229.93,-157.988 h 64.64 V 506.16 c 17.03,10.695 42.3,21.391 63.2,21.391 33.55,0 40.84,-16.043 40.84,-54.446 V 312.207 h 64.17 v 168.676 c 0,8.262 -0.49,17.012 -1.46,25.277 17.5,11.184 41.8,21.875 63.68,21.875 34.03,0 41.8,-18.953 41.8,-54.93 V 312.207 h 64.66 v 168.188 c 0,45.21 -0.98,104.035 -84.1,104.035 -37.43,0 -72.43,-21.875 -92.85,-39.86 -10.69,23.813 -34.51,39.86 -73.89,39.86 -32.08,0 -64.17,-17.989 -86.05,-35.489 v 28.68 h -64.64 z m 588.19,-5.84 c 76.81,0 133.19,47.149 133.19,138.543 0,87.5 -40.84,139.52 -129.3,139.52 -78.75,0 -132.22,-52.5 -132.22,-141.95 0,-84.582 46.17,-136.113 128.33,-136.113 m 3.41,52.012 c -50.56,0 -66.6,36.949 -66.6,86.047 0,45.695 14.09,88.472 65.62,88.472 52.5,0 65.14,-42.777 65.14,-87.988 0,-48.125 -12.64,-86.531 -64.16,-86.531 m 301.86,-51.524 c 18.48,0 42.79,4.375 57.85,9.239 l -7.29,51.523 c -2.42,-0.488 -35,-5.832 -51.52,-5.832 -28.69,0 -37.44,3.403 -37.44,30.141 v 136.109 h 82.64 v 49.586 h -82.64 v 54.449 h -64.17 v -54.449 h -38.88 v -49.586 h 38.88 V 391.441 c 0,-85.562 52.02,-84.586 102.57,-84.586 m 105,5.352 h 64.65 v 265.414 h -64.65 z m -0.49,317.426 h 64.65 v 62.226 h -64.65 z m 200.77,-317.426 h 80.68 l 99.66,265.414 h -67.56 l -54.45,-157.988 -16.53,-54.926 -15.07,54.441 -48.61,158.473 h -70 z m 340.28,-5.84 c 36.45,0 71.93,6.321 93.81,13.125 l -10.21,50.078 c -21.87,-4.382 -53.47,-10.703 -71.94,-10.703 -47.16,0 -83.61,9.727 -83.61,68.059 h 173.05 v 23.328 c 0,83.129 -31.1,133.687 -107.92,133.687 -74.86,0 -129.78,-35 -129.78,-143.398 0,-104.027 52.98,-134.176 136.6,-134.176 m -70.5,163.828 c 2.92,43.75 24.8,67.563 57.36,67.563 32.09,0 48.14,-27.707 47.64,-67.563 z m 292.64,-157.988 h 66.59 l 42.29,111.313 h 123.48 l 37.91,-111.313 h 69.03 l -119.1,343.676 h -86.04 z m 127.36,160.414 47.15,140.973 41.81,-140.973 z m 410.27,-165.766 c 43.75,0 74.39,5.833 109.87,18.477 v 156.523 h -66.12 V 365.676 c -9.23,-0.969 -20.41,-2.91 -35,-2.91 -68.54,0 -124.93,37.91 -124.93,123.953 0,85.062 52.5,118.609 117.64,118.609 40.35,0 57.36,-6.32 84.1,-13.605 l 17.99,49.582 c -21.88,9.23 -48.13,19.441 -101.6,19.441 -120.07,0 -186.18,-60.766 -186.18,-178.891 0,-112.285 70.48,-175 184.23,-175" /><path
         id="path20"
         style="fill:#46a0de;fill-opacity:1;fill-rule:nonzero;stroke:none"
         d="m 374.82,318.809 c 97.231,0 176.055,78.82 176.055,176.039 0,97.242 -78.824,176.058 -176.055,176.058 -97.226,0 -176.054,-78.816 -176.054,-176.058 0,-97.219 78.828,-176.039 176.054,-176.039" /><path
         id="path22"
         style="fill:#1a2443;fill-opacity:1;fill-rule:nonzero;stroke:none"
         d="m 2209.94,73.4688 v 33.9142 l -31.11,-1.289 c -20.52,-0.867 -31.12,-11.0276 -31.12,-23.7698 0,-18.1523 10.6,-24.414 25.28,-24.414 14.48,0 27.88,8.2031 36.95,15.5586 z m -73.89,7.3437 c 0,28.5235 25.71,34.9995 43.86,35.4375 l 30.03,0.645 v 17.07 c 0,20.957 -8.64,25.93 -31.33,25.93 -9.93,0 -20.74,-2.598 -28.95,-5.84 l -3.02,9.937 c 7.77,3.457 20.52,6.699 35.43,6.699 23.55,0 39.54,-9.07 39.54,-31.328 V 70.6523 c 0,-10.1523 7.99,-12.3125 13.39,-12.3125 l -0.43,-9.5117 c -0.64,-0.2148 -2.59,-0.4297 -4.54,-0.4297 -8.42,0 -18.58,4.7539 -19.44,15.5547 -7.99,-6.4726 -19.66,-16.1992 -41.27,-16.1992 -19.66,0 -33.27,11.8867 -33.27,33.0586" /><path
         id="path24"
         style="fill:#1a2443;fill-opacity:1;fill-rule:nonzero;stroke:none"
         d="m 2311.65,108.469 c 0,38.672 20.75,62.222 52.72,62.222 15.78,0 25.5,-4.097 30.68,-6.914 l -4.1,-10.152 c -5.4,2.371 -14.05,6.055 -27.44,6.055 -24.42,0 -39.54,-19.016 -39.54,-50.344 0,-34.5704 11.45,-51.211 47.1,-51.211 9.29,0 17.72,2.375 22.04,3.6719 l 2.16,-10.1563 c -4.97,-1.9453 -14.04,-4.5312 -25.93,-4.5312 -39.76,0 -57.69,18.5742 -57.69,61.3596" /><path
         id="path26"
         style="fill:#1a2443;fill-opacity:1;fill-rule:nonzero;stroke:none"
         d="m 2509.56,108.684 c 0,22.468 -7.13,51.851 -38.68,51.851 -30.9,0 -39.11,-28.953 -39.11,-52.066 0,-25.7151 9.29,-51.2112 39.54,-51.2112 30.68,0 38.25,27.0117 38.25,51.4262 z m -90.1,-1.301 c 0,41.269 22.25,63.308 52.07,63.308 33.27,0 50.12,-22.253 50.12,-62.007 0,-41.6996 -22.04,-61.5746 -51.42,-61.5746 -31.11,0 -50.77,21.1718 -50.77,60.2736" /><path
         id="path28"
         style="fill:#1a2443;fill-opacity:1;fill-rule:nonzero;stroke:none"
         d="m 2560.52,167.668 h 11.89 v -14.477 c 9.5,7.778 23.33,17.075 38.02,17.075 19.23,0 28.09,-7.786 32.42,-17.286 9.5,7.129 23.55,17.286 42.78,17.286 33.7,0 36.51,-23.555 36.51,-43.868 V 49.6953 h -11.88 v 73.2457 c 0,19.454 -2.38,36.512 -26.58,36.512 -14.26,0 -27.01,-7.773 -38.03,-16.199 0.87,-5.402 1.51,-11.457 1.51,-16.856 V 49.6953 h -11.66 v 73.2457 c 0,19.012 -1.73,36.954 -26.14,36.954 -11.89,0 -26.8,-9.075 -36.95,-17.727 V 49.6953 h -11.89 V 167.668" /><path
         id="path30"
         style="fill:#1a2443;fill-opacity:1;fill-rule:nonzero;stroke:none"
         d="m 2846.51,106.523 c 0,25.711 -5.4,53.157 -36.3,53.157 -12.96,0 -28.74,-10.598 -32.2,-13.403 V 60.7148 c 5.84,-0.8593 11.24,-2.8046 27.23,-2.8046 27.66,0 41.27,21.1718 41.27,48.6128 z m -80.37,61.145 h 11.87 v -9.934 c 8.66,5.832 20.74,12.532 33.93,12.532 30.03,0 46.88,-23.125 46.88,-58.555 0,-49.2696 -25.92,-64.3868 -54.22,-64.3868 -11.46,0 -20.32,1.0742 -26.59,2.1602 V 2.16797 h -11.87 V 167.668" /><path
         id="path32"
         style="fill:#1a2443;fill-opacity:1;fill-rule:nonzero;stroke:none"
         d="m 2963.45,73.4688 v 33.9142 l -31.11,-1.289 c -20.53,-0.867 -31.11,-11.0276 -31.11,-23.7698 0,-18.1523 10.58,-24.414 25.27,-24.414 14.48,0 27.87,8.2031 36.95,15.5586 z m -73.89,7.3437 c 0,28.5235 25.71,34.9995 43.85,35.4375 l 30.04,0.645 v 17.07 c 0,20.957 -8.64,25.93 -31.33,25.93 -9.94,0 -20.74,-2.598 -28.95,-5.84 l -3.03,9.937 c 7.78,3.457 20.53,6.699 35.44,6.699 23.55,0 39.53,-9.07 39.53,-31.328 V 70.6523 c 0,-10.1523 8,-12.3125 13.4,-12.3125 l -0.43,-9.5117 c -0.64,-0.2148 -2.6,-0.4297 -4.54,-0.4297 -8.43,0 -18.58,4.7539 -19.44,15.5547 -8,-6.4726 -19.66,-16.1992 -41.27,-16.1992 -19.66,0 -33.27,11.8867 -33.27,33.0586" /><path
         id="path34"
         style="fill:#1a2443;fill-opacity:1;fill-rule:nonzero;stroke:none"
         d="m 3022.37,167.668 h 11.88 V 153.84 c 11.89,8.855 24.2,16.851 41.92,16.851 34.14,0 35.87,-25.711 35.87,-44.293 V 49.6953 h -11.46 v 73.2457 c 0,21.61 -2.59,36.954 -26.79,36.954 -14.48,0 -28.74,-8.86 -39.54,-16.86 V 49.6953 h -11.88 V 167.668" /><path
         id="path36"
         style="fill:#1a2443;fill-opacity:1;fill-rule:nonzero;stroke:none"
         d="m 3184.32,49.6953 h -6.7 l -37.37,117.9727 h 13.17 l 27.01,-88.1563 6.92,-21.6015 7.34,21.1718 30.47,88.586 h 12.53 L 3180,2.16797 h -11.88 l 16.2,47.52733" /><path
         id="path38"
         style="fill:#1a2443;fill-opacity:1;fill-rule:nonzero;stroke:none"
         d="m 3410.71,108.684 c 0,22.468 -7.13,51.851 -38.67,51.851 -30.9,0 -39.12,-28.953 -39.12,-52.066 0,-25.7151 9.3,-51.2112 39.55,-51.2112 30.68,0 38.24,27.0117 38.24,51.4262 z m -90.1,-1.301 c 0,41.269 22.26,63.308 52.07,63.308 33.28,0 50.13,-22.253 50.13,-62.007 0,-41.6996 -22.03,-61.5746 -51.42,-61.5746 -31.11,0 -50.78,21.1718 -50.78,60.2736" /><path
         id="path40"
         style="fill:#1a2443;fill-opacity:1;fill-rule:nonzero;stroke:none"
         d="m 3464.64,156.648 h -17.28 v 11.02 h 17.28 v 9.07 c 0,26.582 15.78,38.028 35.87,38.028 8.22,0 13.4,-0.86 17.29,-2.157 l -2.16,-10.375 c -3.03,0.657 -6.06,1.731 -15.13,1.731 -16.42,0 -23.98,-7.129 -23.98,-27 v -9.297 h 25.28 v -11.02 h -25.28 V 49.6953 h -11.89 V 156.648" /><path
         id="path42"
         style="fill:#1a2443;fill-opacity:1;fill-rule:nonzero;stroke:none"
         d="m 3597.49,202.449 h 18.58 l 54.88,-147.9959 61.36,147.9959 h 17.29 V 49.6953 h -12.75 V 164.426 l 0.64,20.308 h -0.64 L 3681.32,49.6953 h -21.61 l -49.7,135.4727 h -0.64 l 0.86,-17.063 V 49.6953 h -12.74 V 202.449" /><path
         id="path44"
         style="fill:#1a2443;fill-opacity:1;fill-rule:nonzero;stroke:none"
         d="m 3862.99,73.4688 v 33.9142 l -31.11,-1.289 c -20.53,-0.867 -31.11,-11.0276 -31.11,-23.7698 0,-18.1523 10.58,-24.414 25.27,-24.414 14.48,0 27.87,8.2031 36.95,15.5586 z m -73.89,7.3437 c 0,28.5235 25.71,34.9995 43.85,35.4375 l 30.04,0.645 v 17.07 c 0,20.957 -8.64,25.93 -31.34,25.93 -9.93,0 -20.74,-2.598 -28.94,-5.84 l -3.03,9.937 c 7.78,3.457 20.53,6.699 35.43,6.699 23.56,0 39.54,-9.07 39.54,-31.328 V 70.6523 c 0,-10.1523 8,-12.3125 13.4,-12.3125 l -0.43,-9.5117 c -0.65,-0.2148 -2.59,-0.4297 -4.54,-0.4297 -8.43,0 -18.57,4.7539 -19.44,15.5547 -8,-6.4726 -19.66,-16.1992 -41.27,-16.1992 -19.66,0 -33.27,11.8867 -33.27,33.0586" /><path
         id="path46"
         style="fill:#1a2443;fill-opacity:1;fill-rule:nonzero;stroke:none"
         d="m 3995,131.367 c 0,16.856 -11.02,29.824 -30.25,29.824 -18.8,0 -30.24,-11.882 -30.24,-29.824 0,-19.012 12.96,-29.383 30.03,-29.383 17.94,0 30.46,11.024 30.46,29.383 z m -51.64,-68.4842 c -11.45,-7.7851 -16.64,-17.7266 -16.64,-27.4414 0,-15.3437 12.97,-24.8555 33.93,-24.8555 27.66,0 43.86,16.8555 43.86,32.1953 0,9.9454 -6.26,20.1016 -32.41,20.1016 z m -1.08,33.9141 c -3.46,-5.3985 -4.75,-10.1563 -4.75,-13.3985 0,-5.832 3.89,-9.7148 8.42,-9.7148 h 28.1 c 31.33,0 43,-13.8281 43,-29.6016 C 4017.05,22.6875 3995.22,0 3958.28,0 c -28.74,0 -43.66,13.8281 -43.66,33.4961 0,13.3906 6.7,24.1992 18.59,32.8437 -4.76,3.2305 -7.13,8.6407 -7.13,14.6836 0,6.2735 2.59,13.6172 8.64,20.5316 -7.77,6.265 -12.74,15.769 -12.74,28.738 0,20.742 12.53,40.187 42.56,40.187 17.72,0 26.35,-6.914 27.87,-8.429 h 32.41 V 150.82 h -22.26 c 1.09,-1.511 4.97,-8.211 4.97,-19.453 0,-23.769 -18.14,-39.3162 -42.78,-39.3162 -7.99,0 -15.77,1.5039 -22.47,4.7461" /><path
         id="path48"
         style="fill:#1a2443;fill-opacity:1;fill-rule:nonzero;stroke:none"
         d="m 4058.69,167.668 h 11.88 V 153.84 c 11.89,8.855 24.2,16.851 41.92,16.851 34.14,0 35.86,-25.711 35.86,-44.293 V 49.6953 h -11.45 v 73.2457 c 0,21.61 -2.59,36.954 -26.79,36.954 -14.47,0 -28.74,-8.86 -39.54,-16.86 V 49.6953 h -11.88 V 167.668" /><path
         id="path50"
         style="fill:#1a2443;fill-opacity:1;fill-rule:nonzero;stroke:none"
         d="m 4256.74,73.4688 v 33.9142 l -31.11,-1.289 c -20.53,-0.867 -31.11,-11.0276 -31.11,-23.7698 0,-18.1523 10.58,-24.414 25.27,-24.414 14.48,0 27.87,8.2031 36.95,15.5586 z m -73.89,7.3437 c 0,28.5235 25.71,34.9995 43.85,35.4375 l 30.04,0.645 v 17.07 c 0,20.957 -8.64,25.93 -31.34,25.93 -9.93,0 -20.74,-2.598 -28.94,-5.84 l -3.03,9.937 c 7.78,3.457 20.53,6.699 35.43,6.699 23.56,0 39.54,-9.07 39.54,-31.328 V 70.6523 c 0,-10.1523 8,-12.3125 13.4,-12.3125 l -0.43,-9.5117 c -0.65,-0.2148 -2.59,-0.4297 -4.54,-0.4297 -8.43,0 -18.57,4.7539 -19.44,15.5547 -8,-6.4726 -19.66,-16.1992 -41.27,-16.1992 -19.66,0 -33.27,11.8867 -33.27,33.0586" /></g></g></svg>